<?xml version="1.0" encoding="UTF-8"?>
<svg width="36px" height="36px" viewBox="0 0 36 36" version="1.1" xmlns="http://www.w3.org/2000/svg" xmlns:xlink="http://www.w3.org/1999/xlink">
    <!-- Generator: Sketch 46.2 (44496) - http://www.bohemiancoding.com/sketch -->
    <title>camera</title>
    <desc>Created with Sketch.</desc>
    <defs></defs>
    <g id="Mockups" stroke="none" stroke-width="1" fill="none" fill-rule="evenodd">
        <g id="Icons" transform="translate(-126.000000, -148.000000)" fill="#50E3C2">
            <path d="M153.221069,179 L161,179 L161,161 L127,161 L127,179 L134.778931,179 C133.653842,177.274443 133,175.213578 133,173 C133,166.924868 137.924868,162 144,162 C150.075132,162 155,166.924868 155,173 C155,175.213578 154.346158,177.274443 153.221069,179 Z M152.485676,180 C150.468092,182.443007 147.415874,184 144,184 C140.584126,184 137.531908,182.443007 135.514324,180 L126,180 L126,179.5 L126,160 L126.5,160 L141,160 L141,156 L140,156 C138.895431,156 138,155.104569 138,154 L138,150 C138,148.895431 138.895431,148 140,148 L148,148 C149.104569,148 150,148.895431 150,150 L150,154 C150,155.104569 149.104569,156 148,156 L147,156 L147,160 L152,160 L152,158 L158,158 L158,160 L161.5,160 L162,160 L162,179.5 L162,180 L152.485676,180 Z M142,160 L146,160 L146,156 L142,156 L142,160 Z M140,149 C139.447715,149 139,149.447715 139,150 L139,154 C139,154.552285 139.447715,155 140,155 L148,155 C148.552285,155 149,154.552285 149,154 L149,150 C149,149.447715 148.552285,149 148,149 L140,149 Z M153,160 L157,160 L157,159 L153,159 L153,160 Z M144,183 C149.522847,183 154,178.522847 154,173 C154,167.477153 149.522847,163 144,163 C138.477153,163 134,167.477153 134,173 C134,178.522847 138.477153,183 144,183 Z M144,179.5 C140.410149,179.5 137.5,176.589851 137.5,173 C137.5,169.410149 140.410149,166.5 144,166.5 C147.589851,166.5 150.5,169.410149 150.5,173 C150.5,176.589851 147.589851,179.5 144,179.5 Z M144,178.5 C147.037566,178.5 149.5,176.037566 149.5,173 C149.5,169.962434 147.037566,167.5 144,167.5 C140.962434,167.5 138.5,169.962434 138.5,173 C138.5,176.037566 140.962434,178.5 144,178.5 Z M129,163 L133,163 L133,164 L129,164 L129,163 Z" id="camera"></path>
        </g>
    </g>
</svg>