<?xml version="1.0" encoding="UTF-8"?>
<svg width="38px" height="36px" viewBox="0 0 38 36" version="1.1" xmlns="http://www.w3.org/2000/svg" xmlns:xlink="http://www.w3.org/1999/xlink">
    <!-- Generator: Sketch 46.2 (44496) - http://www.bohemiancoding.com/sketch -->
    <title>gift</title>
    <desc>Created with Sketch.</desc>
    <defs></defs>
    <g id="Mockups" stroke="none" stroke-width="1" fill="none" fill-rule="evenodd">
        <g id="Icons" transform="translate(-52.000000, -148.000000)" fill-rule="nonzero" fill="#50E3C2">
            <path d="M90,148.5 L90,184 L89.5,184 L52,184 L52,183.5 L52,148 L52.5,148 L90,148 L90,148.5 Z M89,149 L70,149 L70,154.035444 C71.0549414,154.186342 71.9581283,154.80767 72.4902403,155.680108 C74.6889276,153.226703 76.7580489,152 79,152 C81.5784819,152 82.8545641,154.19675 82.988237,157 L89,157 L89,158 L82.988237,158 C82.8545641,160.80325 81.5784819,163 79,163 C77.055782,163 75.241538,162.077478 73.3600563,160.232433 L80.7027588,174 L74.6952515,170.994995 L72.7027588,177 L70,166.281632 L70,183 L89,183 L89,149 Z M53,149 L53,183 L69,183 L69,165.102858 L66,177 L64.0075073,170.994995 L58,174 L65.0487729,160.783551 C63.3757121,162.261184 61.7399019,163 60,163 C57.4215181,163 56.1454359,160.80325 56.011763,158 L53,158 L53,157 L56.011763,157 C56.1454359,154.19675 57.4215181,152 60,152 C62.2419511,152 64.3110724,153.226703 66.5097597,155.680108 C67.0418717,154.80767 67.9450586,154.186342 69,154.035444 L69,149 L53,149 Z M72.9118161,158.284163 C75.1140914,160.851473 77.0342383,162 79,162 C80.8899991,162 82,160.322915 82,157.5 C82,154.677085 80.8899991,153 79,153 C77.1465565,153 75.333664,154.021029 73.2866098,156.289615 L77.9178005,155.506803 L78.0821995,156.493197 L73.5021025,157.267 L78,158 L77.835601,158.986394 L72.9381353,158.158573 C72.9301128,158.200709 72.9213348,158.242577 72.9118161,158.284163 Z M66.7662874,159.685799 L60.3554688,171.716797 L64.5841675,169.588013 L65.8616333,173.460693 L68.97998,160.961633 C68.0876053,160.828714 67.3052138,160.358942 66.7662874,159.685799 Z M70,160.964556 L70,162.0728 L72.8411255,173.460693 L74.1185913,169.588013 L78.34729,171.716797 L72.0495084,159.897932 C71.5189831,160.461778 70.8035103,160.849622 70,160.964556 Z M66.0881839,158.284163 C66.0786652,158.242577 66.0698872,158.200709 66.0618647,158.158573 L61.164399,158.986394 L61,158 L65.4978975,157.267 L60.9178005,156.493197 L61.0821995,155.506803 L65.7133902,156.289615 C63.666336,154.021029 61.8534435,153 60,153 C58.1100009,153 57,154.677085 57,157.5 C57,160.322915 58.1100009,162 60,162 C61.9657617,162 63.8859086,160.851473 66.0881839,158.284163 Z M69.5,160 C70.8807119,160 72,158.880712 72,157.5 C72,156.119288 70.8807119,155 69.5,155 C68.1192881,155 67,156.119288 67,157.5 C67,158.880712 68.1192881,160 69.5,160 Z" id="gift"></path>
        </g>
    </g>
</svg>