<?xml version="1.0" encoding="UTF-8"?>
<svg width="40px" height="36px" viewBox="0 0 40 36" version="1.1" xmlns="http://www.w3.org/2000/svg" xmlns:xlink="http://www.w3.org/1999/xlink">
    <!-- Generator: Sketch 46.2 (44496) - http://www.bohemiancoding.com/sketch -->
    <title>heart</title>
    <desc>Created with Sketch.</desc>
    <defs></defs>
    <g id="Mockups" stroke="none" stroke-width="1" fill="none" fill-rule="evenodd">
        <g id="Icons" transform="translate(-193.000000, -148.000000)" fill-rule="nonzero" fill="#50E3C2">
            <path d="M212.367555,183.34556 C199.864664,174.94856 195.376345,168.652929 193.574516,164.247183 C191.726177,159.727716 194.245499,150.570736 202.474316,148.44493 C206.555911,147.390504 210.136169,148.299232 213,150.233372 C215.863831,148.299232 219.444089,147.390504 223.525684,148.44493 C231.754501,150.570736 234.273823,159.727716 232.425484,164.247183 C230.623655,168.652929 226.135336,174.94856 213.632445,183.34556 C213.539718,183.561904 213.446182,183.780041 213.351849,184 C213.233888,183.922344 213.116606,183.844863 213,183.767558 C212.883394,183.844863 212.766112,183.922344 212.648151,184 C212.553818,183.780041 212.460282,183.561904 212.367555,183.34556 Z M214.353189,181.660949 C224.192825,174.87907 229.362216,169.125478 231.510041,163.87372 C233.532209,158.929215 229.963113,151.128099 223.278056,149.401103 C219.845465,148.514339 216.580341,149.139794 213.844865,150.849258 C216.331423,152.799977 218.199773,155.530258 219.285049,158.321339 C221.526901,164.086861 219.210398,170.279288 214.353189,181.660949 L214.353189,181.660949 Z M211.646811,181.660949 C206.789602,170.279288 204.473099,164.086861 206.714951,158.321339 C207.800227,155.530258 209.668577,152.799977 212.155135,150.849258 C209.419659,149.139794 206.154535,148.514339 202.721944,149.401103 C196.036887,151.128099 192.467791,158.929215 194.489959,163.87372 C196.637784,169.125478 201.807175,174.87907 211.646811,181.660949 L211.646811,181.660949 Z M213,151.423929 C210.686503,153.130455 208.81564,155.647035 207.636745,158.678879 C205.73455,163.570882 206.735155,167.611556 213,182.308245 C219.264845,167.611556 220.26545,163.570882 218.363255,158.678879 C217.18436,155.647035 215.313497,153.130455 213,151.423929 L213,151.423929 Z" id="heart"></path>
        </g>
    </g>
</svg>