<?xml version="1.0" encoding="UTF-8"?>
<svg width="40px" height="36px" viewBox="0 0 40 36" version="1.1" xmlns="http://www.w3.org/2000/svg" xmlns:xlink="http://www.w3.org/1999/xlink">
    <!-- Generator: Sketch 46.2 (44496) - http://www.bohemiancoding.com/sketch -->
    <title>wedding-cake</title>
    <desc>Created with Sketch.</desc>
    <defs></defs>
    <g id="Mockups" stroke="none" stroke-width="1" fill="none" fill-rule="evenodd">
        <g id="Icons" transform="translate(-265.000000, -148.000000)" fill-rule="nonzero" fill="#50E3C2">
            <path d="M273,158 L273,159.645995 C273.751459,160.498067 274.833235,161 276,161 C277.547945,161 278.935846,160.113298 279.600523,158.745094 L279.962492,158 L273,158 Z M290.399477,158.745094 C291.064154,160.113298 292.452055,161 294,161 C295.166765,161 296.248541,160.498067 297,159.645995 L297,158 L290.037508,158 L290.399477,158.745094 Z M290.819269,154.132558 L293.693884,150.108097 L292.585786,149 L291.5,149 L292,150 L290.819269,154.132558 Z M289.180731,154.132558 L288,150 L288.5,149 L287.414214,149 L286.306116,150.108097 L289.180731,154.132558 Z M284.5,168 L285.5,168 L301,168 L301,171.791978 L301,181 L304.5,181 L305,181 L305,184 L304.5,184 L265,184 L265,183.5 L265,181 L265.5,181 L269,181 L269,171.791978 L269,168 L272,168 L272,159.500244 L272,157 L298,157 L298,159.500244 L298,168 L297,168 L297,161.000366 C296.164339,161.628055 295.125606,162 294,162 C291.021057,162 289.57287,159.332062 289.5,159.182063 C289.42713,159.332062 288,162 285,162 C282,162 280.57287,159.332062 280.5,159.182063 C280.42713,159.332062 279.010803,162 276,162 C274.874394,162 273.835661,161.628055 273,161.000366 L273,168 L284.5,168 Z M284.899982,169 C284.436712,171.28224 282.418958,173 280,173 C277.23999,173 275.57287,170.332062 275.5,170.182063 C275.42713,170.332062 274,173 271,173 C270.657534,173 270.32311,172.96557 270,172.899982 L270,181 L300,181 L300,172.899982 C299.67689,172.96557 299.342466,173 299,173 C296,173 294.57287,170.332062 294.5,170.182063 C294.42713,170.332062 292.76001,173 290,173 C287.581042,173 285.563288,171.28224 285.100018,169 L284.899982,169 Z M266,182 L266,183 L304,183 L304,182 L266,182 Z M288.600523,158.745094 L288.962492,158 L281.037508,158 L281.399477,158.745094 C282.064154,160.113298 283.452055,161 285,161 C286.547945,161 287.935846,160.113298 288.600523,158.745094 Z M295.399477,169.745094 C296.064154,171.113298 297.452055,172 299,172 C299.341814,172 299.676953,171.957321 300,171.874247 L300,169 L295.037508,169 L295.399477,169.745094 Z M293.600523,169.745094 L293.962492,169 L286.126017,169 C286.57006,170.725227 288.136161,172 290,172 C291.547945,172 292.935846,171.113298 293.600523,169.745094 Z M270,169 L270,171.874247 C270.323047,171.957321 270.658186,172 271,172 C272.547945,172 273.935846,171.113298 274.600523,169.745094 L274.962492,169 L270,169 Z M276.399477,169.745094 C277.064154,171.113298 278.452055,172 280,172 C281.863839,172 283.42994,170.725227 283.873983,169 L276.037508,169 L276.399477,169.745094 Z M280.5,165 C280.223858,165 280,164.776142 280,164.5 C280,164.223858 280.223858,164 280.5,164 C280.776142,164 281,164.223858 281,164.5 C281,164.776142 280.776142,165 280.5,165 Z M275.5,177 C275.223858,177 275,176.776142 275,176.5 C275,176.223858 275.223858,176 275.5,176 C275.776142,176 276,176.223858 276,176.5 C276,176.776142 275.776142,177 275.5,177 Z M289.5,165 C289.223858,165 289,164.776142 289,164.5 C289,164.223858 289.223858,164 289.5,164 C289.776142,164 290,164.223858 290,164.5 C290,164.776142 289.776142,165 289.5,165 Z M285.5,177 C285.223858,177 285,176.776142 285,176.5 C285,176.223858 285.223858,176 285.5,176 C285.776142,176 286,176.223858 286,176.5 C286,176.776142 285.776142,177 285.5,177 Z M294.5,177 C294.223858,177 294,176.776142 294,176.5 C294,176.223858 294.223858,176 294.5,176 C294.776142,176 295,176.223858 295,176.5 C295,176.776142 294.776142,177 294.5,177 Z M285,150 L287,148 L293,148 L295,150 L290,157 L285,150 Z M290.931614,150.099296 L290.381966,149 L289.618034,149 L289.068386,150.099296 L290,153.359945 L290.931614,150.099296 Z M280.5,157 C278.014719,157 276,154.985281 276,152.5 C276,150.014719 278.014719,148 280.5,148 C282.985281,148 285,150.014719 285,152.5 C285,154.985281 282.985281,157 280.5,157 Z M280.5,156 C282.432997,156 284,154.432997 284,152.5 C284,150.567003 282.432997,149 280.5,149 C278.567003,149 277,150.567003 277,152.5 C277,154.432997 278.567003,156 280.5,156 Z M280.5,155 C279.119288,155 278,153.880712 278,152.5 C278,151.119288 279.119288,150 280.5,150 C281.880712,150 283,151.119288 283,152.5 C283,153.880712 281.880712,155 280.5,155 Z M280.5,154 C281.328427,154 282,153.328427 282,152.5 C282,151.671573 281.328427,151 280.5,151 C279.671573,151 279,151.671573 279,152.5 C279,153.328427 279.671573,154 280.5,154 Z" id="wedding-cake"></path>
        </g>
    </g>
</svg>